PathFileType	4	(X/Y/Z)	/Users/niels/Desktop/University/Third Semester/Perception and Action/Exam/Gymnastics Motion Tracking/Code for Gym Tracking/Analyzed Data/Webcam_Backflip/id3_4_baseline_Sports2D/id3_4_baseline_Sports2D_px_person00.trc
DataRate	CameraRate	NumFrames	NumMarkers	Units	OrigDataRate	OrigDataStartFrame	OrigNumFrames
29.8125	29.8125	7	22	m	29.8125	120	160
Frame#	Time	Hip			RHip			RKnee			RAnkle			RBigToe			RSmallToe			RHeel			LHip			LKnee			LAnkle			LBigToe			LSmallToe			LHeel			Neck			Head			Nose			RShoulder			RElbow			RWrist			LShoulder			LElbow			LWrist		
		X1	Y1	Z1	X2	Y2	Z2	X3	Y3	Z3	X4	Y4	Z4	X5	Y5	Z5	X6	Y6	Z6	X7	Y7	Z7	X8	Y8	Z8	X9	Y9	Z9	X10	Y10	Z10	X11	Y11	Z11	X12	Y12	Z12	X13	Y13	Z13	X14	Y14	Z14	X15	Y15	Z15	X16	Y16	Z16	X17	Y17	Z17	X18	Y18	Z18	X19	Y19	Z19	X20	Y20	Z20	X21	Y21	Z21	X22	Y22	Z22
120	4.025157232704402	1.2045659330013065	-0.5526127241215526	0.0	1.2137487893397114	-0.5500925209162159	0.0	1.2121595870542161	-0.6620245429912515	0.0	1.2006385111682154	-0.7805183498177737	0.0	1.2370296682852553	-0.7994809160834808	0.0	1.2291318451574116	-0.8043068072419035	0.0	1.1930880396125054	-0.7966484273144894	0.0	1.1949281740294118	-0.5490887736915585	0.0	1.1889863753379004	-0.6551451657874772	0.0	1.1700405689888687	-0.7622288995605749	0.0	1.2062838228167787	-0.7681578374388253	0.0	1.193884782035376	-0.7682734428868093	0.0	1.1593699334780994	-0.7800481814095916	0.0	1.2074655035747042	-0.3840747095145181	0.0	1.2117998811855553	-0.3110491076445413	0.0	1.2363765906080766	-0.3472518411686942	0.0	1.2069290241360229	-0.4068497483804991	0.0	1.1994480109800583	-0.48931084387739643	0.0	1.2264328533394324	-0.5605455163702513	0.0	1.1959529429100402	-0.4061758607030165	0.0	1.1887804348748798	-0.48394404567452753	0.0	1.2159947455725773	-0.5472103382259039	0.0
121	4.058700209643606	1.2056753872849306	-0.5536829277661837	0.0	1.215036378314369	-0.5509348601966966	0.0	1.2121713504650686	-0.6623862894951663	0.0	1.2006431354429936	-0.7804475251649972	0.0	1.2370799759793065	-0.7990105779029828	0.0	1.2295779258858084	-0.8038337505269323	0.0	1.1931943774272413	-0.7967737941100844	0.0	1.1949585948416221	-0.550010192924211	0.0	1.1888892118280612	-0.6552817438656691	0.0	1.1701363158165679	-0.7625509059200304	0.0	1.2045536415558333	-0.7677211198857612	0.0	1.1925805926137074	-0.7679818917094834	0.0	1.1593244938549219	-0.7801502554390592	0.0	1.2077449439232035	-0.3838077596967419	0.0	1.2128172569143758	-0.3111110323493838	0.0	1.2364778831526013	-0.34738557763444433	0.0	1.2083229282281591	-0.40610642561635346	0.0	1.1944627710752127	-0.48755784069222297	0.0	1.213461882488107	-0.5613447572200259	0.0	1.195653737565074	-0.406014721760638	0.0	1.184687489808006	-0.48337736597016345	0.0	1.2070027470680647	-0.5473217958708446	0.0
122	4.092243186582809	1.2065972327703793	-0.5554825659798962	0.0	1.216268720497849	-0.5525023943542162	0.0	1.2121975209068439	-0.6637121085744301	0.0	1.2005516690799656	-0.7817896472892641	0.0	1.2369922502446185	-0.7997087684126551	0.0	1.2299873718945316	-0.8045299140099637	0.0	1.193012832034405	-0.798012008033425	0.0	1.194780489447598	-0.5515574189385768	0.0	1.1886263469620553	-0.6565044705911739	0.0	1.1701511725617868	-0.7643351110812642	0.0	1.2029895048334431	-0.7687137583998034	0.0	1.1914769655423187	-0.7692395965058637	0.0	1.159411507930072	-0.7815302177989459	0.0	1.2078662476379425	-0.3847035001922535	0.0	1.2138867281588102	-0.3122386202598512	0.0	1.2367349456990826	-0.34887651286468674	0.0	1.2098682243622352	-0.4065029210567298	0.0	1.19058976646419	-0.4866890763398746	0.0	1.2021941639159746	-0.5623415070693774	0.0	1.1947497674966003	-0.40699459505740115	0.0	1.179788598407552	-0.48426300329309774	0.0	1.1966763420363729	-0.5485933457417997	0.0
123	4.125786163522012	1.2071353397199203	-0.5580660470846631	0.0	1.2172062308845768	-0.5549961994999251	0.0	1.2121773578665211	-0.6659715570177781	0.0	1.2002816385850885	-0.7842956357337497	0.0	1.2367963143015703	-0.8014569176553741	0.0	1.2302235890914854	-0.8062686473027177	0.0	1.1925731800895447	-0.8001472870919161	0.0	1.1943850038340784	-0.5539750812447906	0.0	1.1881468016461196	-0.6587828350566858	0.0	1.170065334309626	-0.7673851267208032	0.0	1.20167128782638	-0.7710038191822336	0.0	1.1905933751194349	-0.7718386859033498	0.0	1.1596282867972352	-0.7840084720954629	0.0	1.2078664006576962	-0.38666915305395033	0.0	1.2148970829122463	-0.3143873309185377	0.0	1.2372235331616377	-0.3514010594999592	0.0	1.2112621207250716	-0.40806939368123046	0.0	1.187966192872895	-0.4870241824876857	0.0	1.1933353604008052	-0.5639260192852108	0.0	1.193577834830393	-0.409098828265702	0.0	1.1751674894159065	-0.4864350160741997	0.0	1.1868966359903188	-0.5509447236181867	0.0
124	4.159329140461216	1.20722047229107	-0.561517384486764	0.0	1.217651525507488	-0.5585692887217892	0.0	1.2120187735729964	-0.66905465357039	0.0	1.1998157947675294	-0.7875738154407395	0.0	1.236616137549533	-0.8040478109881348	0.0	1.2302680191330815	-0.8088442316852779	0.0	1.1919645268014945	-0.8029014937493265	0.0	1.1938473781892094	-0.5575239547291518	0.0	1.1874412992406667	-0.6620321231524873	0.0	1.1699089089378818	-0.7714062452477461	0.0	1.200831771594436	-0.7744452675778382	0.0	1.1900584277879311	-0.7754784341687568	0.0	1.1599267837532239	-0.7873502094022574	0.0	1.2077875961021602	-0.389538235091231	0.0	1.2156952934804142	-0.3174606751503905	0.0	1.237878291037654	-0.35467237982979755	0.0	1.2122145533923536	-0.41075736370622856	0.0	1.186563925336392	-0.48887193963724007	0.0	1.1874073738727113	-0.5665967328374469	0.0	1.1924792824884118	-0.41216730143344726	0.0	1.1718360042207134	-0.48967166099189346	0.0	1.1796035687495776	-0.554404343338097	0.0
125	4.192872117400419	1.206841506856622	-0.5657208144451039	0.0	1.2175170857451136	-0.5630893712155134	0.0	1.2116652552052014	-0.6727291015532976	0.0	1.1992184031770172	-0.7911933357475419	0.0	1.236548901057632	-0.8071898411628785	0.0	1.2301615208242471	-0.8119770856862533	0.0	1.1913014813918006	-0.8059658781470139	0.0	1.1932505587673539	-0.5621583238845226	0.0	1.1865605326640867	-0.6660659640311857	0.0	1.1697093138914372	-0.7760243021653599	0.0	1.200695841266493	-0.7788205078621985	0.0	1.1900259650966711	-0.7798278717858557	0.0	1.1602588830898861	-0.7912526621022425	0.0	1.2076575761264743	-0.39306404148311463	0.0	1.2161555165320947	-0.3212916514377471	0.0	1.2385181640551186	-0.35849323143451556	0.0	1.2125336212759021	-0.41436531024487544	0.0	1.186354843806603	-0.49229230847556127	0.0	1.1847654382707378	-0.5706014137232888	0.0	1.1916583651578934	-0.4158979589840215	0.0	1.1703566243721557	-0.4936991041542093	0.0	1.1761358575560594	-0.5589263980184775	0.0
126	4.226415094339622	1.206002379050306	-0.5702197801920653	0.0	1.2168476623871753	-0.5680680504917064	0.0	1.2111163073058724	-0.6766687999864611	0.0	1.1986133457469703	-0.7947869223374642	0.0	1.2366327551349832	-0.8104995138728952	0.0	1.229992965546039	-0.8153065174753119	0.0	1.190707424312273	-0.8090559771067563	0.0	1.1926403636944523	-0.5673806713498224	0.0	1.1855867361072345	-0.6705577851684182	0.0	1.1694802011540213	-0.7807927579765186	0.0	1.201259680273868	-0.7837564925502927	0.0	1.1905171799273062	-0.7845059679406517	0.0	1.1605840518692883	-0.7953359601700882	0.0	1.2074898861778487	-0.39690652964130646	0.0	1.2162503430585134	-0.325589483232657	0.0	1.2389413964728453	-0.3626418757818148	0.0	1.2121765619264773	-0.4185651682758702	0.0	1.187358703031906	-0.49702892243997615	0.0	1.1856588348062274	-0.575739583710729	0.0	1.191118774779944	-0.419904113548284	0.0	1.1707536882050285	-0.49819429446505753	0.0	1.1769656081033777	-0.5642622363436747	0.0
